<?xml version="1.0" encoding="utf-8"?>
<!-- Generator: Adobe Illustrator 16.0.0, SVG Export Plug-In . SVG Version: 6.00 Build 0)  -->
<!DOCTYPE svg PUBLIC "-//W3C//DTD SVG 1.1//EN" "http://www.w3.org/Graphics/SVG/1.1/DTD/svg11.dtd">
<svg version="1.1"
	 id="svg2" xmlns:dc="http://purl.org/dc/elements/1.1/" xmlns:cc="http://creativecommons.org/ns#" xmlns:rdf="http://www.w3.org/1999/02/22-rdf-syntax-ns#" xmlns:svg="http://www.w3.org/2000/svg"
	 xmlns="http://www.w3.org/2000/svg" xmlns:xlink="http://www.w3.org/1999/xlink" x="0px" y="0px" width="256.986px"
	 height="256.986px" viewBox="0 0 256.986 256.986" enable-background="new 0 0 256.986 256.986" xml:space="preserve">
<path id="path16" fill="#231F20" d="M128.448,3.815C59.565,3.815,3.724,59.657,3.724,128.539
	c0,68.883,55.841,124.724,124.724,124.724c68.882,0,124.725-55.841,124.725-124.724C253.172,59.657,197.329,3.815,128.448,3.815
	L128.448,3.815z M128.448,242.079c-62.707,0-113.54-50.833-113.54-113.54c0-62.706,50.833-113.542,113.54-113.542
	c62.706,0,113.542,50.836,113.542,113.542C241.99,191.246,191.154,242.079,128.448,242.079L128.448,242.079L128.448,242.079"/>
<path id="path18" fill="#231F20" d="M103.589,43.708c7.886-2.307,16.227-3.542,24.858-3.542c8.619,0,16.954,1.233,24.831,3.535l0,0
	l-24.831,55.04L103.589,43.708L103.589,43.708"/>
<path id="path20" fill="#231F20" d="M175.884,53.963c9.314,5.938,17.44,13.57,23.944,22.462l0,0l-40.757,90.188l-15.725-34.968
	h-29.798l-15.726,34.968L57.128,76.341l0,0c6.493-8.857,14.596-16.458,23.879-22.376l0,0l32.542,72.194h29.898L175.884,53.963
	L175.884,53.963"/>
<path id="path22" fill="#231F20" d="M43.062,105.665c-1.948,7.298-2.988,14.966-2.988,22.874c0,34.632,19.919,64.61,48.926,79.104
	l0,0L43.062,105.665L43.062,105.665"/>
<path id="path24" fill="#231F20" d="M103.999,213.488c7.763,2.231,15.967,3.426,24.448,3.426c8.471,0,16.664-1.191,24.421-3.417l0,0
	l-24.421-54.229L103.999,213.488L103.999,213.488"/>
<path id="path26" fill="#231F20" d="M167.895,207.644c29.007-14.494,48.925-44.473,48.925-79.104c0-7.841-1.019-15.442-2.935-22.68
	l0,0L167.895,207.644L167.895,207.644"/>
</svg>
