<?xml version="1.0" encoding="UTF-8" standalone="no"?>
<svg
   xmlns:dc="http://purl.org/dc/elements/1.1/"
   xmlns:cc="http://creativecommons.org/ns#"
   xmlns:rdf="http://www.w3.org/1999/02/22-rdf-syntax-ns#"
   xmlns:svg="http://www.w3.org/2000/svg"
   xmlns="http://www.w3.org/2000/svg"
   viewBox="0 0 256.98666 256.98666"
   height="256.98666"
   width="256.98666"
   xml:space="preserve"
   id="svg2"
   version="1.1"><metadata
     id="metadata8"><rdf:RDF><cc:Work
         rdf:about=""><dc:format>image/svg+xml</dc:format><dc:type
           rdf:resource="http://purl.org/dc/dcmitype/StillImage" /></cc:Work></rdf:RDF></metadata><defs
     id="defs6" /><g
     transform="matrix(1.3333333,0,0,-1.3333333,0,256.98667)"
     id="g10"><g
       transform="scale(0.1)"
       id="g12"><path
         id="path14"
         style="fill:#ffffff;fill-opacity:1;fill-rule:evenodd;stroke:none"
         d="M 0,1927.44 H 1927.44 V 0 H 0 v 1927.44" /><path
         id="path16"
         style="fill:#231f20;fill-opacity:1;fill-rule:evenodd;stroke:none"
         d="m 963.359,1898.79 c -516.625,0 -935.4332,-418.82 -935.4332,-935.431 0,-516.625 418.8082,-935.4332 935.4332,-935.4332 516.611,0 935.431,418.8082 935.431,935.4332 0,516.611 -418.82,935.431 -935.431,935.431 v 0 z m 0,-1786.985 c -470.308,0 -851.554,381.25 -851.554,851.554 0,470.291 381.246,851.561 851.554,851.561 470.291,0 851.561,-381.27 851.561,-851.561 0,-470.304 -381.27,-851.554 -851.561,-851.554 v 0 0" /><path
         id="path18"
         style="fill:#231f20;fill-opacity:1;fill-rule:evenodd;stroke:none"
         d="m 776.918,1599.59 c 59.145,17.3 121.703,26.56 186.441,26.56 64.641,0 127.151,-9.25 186.231,-26.51 v 0 l -186.231,-412.8 -186.441,412.75 v 0" /><path
         id="path20"
         style="fill:#231f20;fill-opacity:1;fill-rule:evenodd;stroke:none"
         d="m 1319.13,1522.68 c 69.86,-44.54 130.8,-101.78 179.58,-168.47 v 0 L 1193.04,677.809 1075.1,940.066 H 851.621 L 733.676,677.809 428.461,1354.84 v 0 c 48.699,66.43 109.469,123.44 179.094,167.82 v 0 L 851.621,981.203 h 224.239 l 243.27,541.477 v 0" /><path
         id="path22"
         style="fill:#231f20;fill-opacity:1;fill-rule:evenodd;stroke:none"
         d="m 322.961,1134.91 c -14.613,-54.73 -22.41,-112.24 -22.41,-171.551 0,-259.742 149.394,-484.578 366.945,-593.285 v 0 L 322.961,1134.91 v 0" /><path
         id="path24"
         style="fill:#231f20;fill-opacity:1;fill-rule:evenodd;stroke:none"
         d="m 779.996,326.242 c 58.219,-16.734 119.75,-25.691 183.363,-25.691 63.531,0 124.981,8.937 183.151,25.625 v 0 L 963.359,732.902 779.996,326.242 v 0" /><path
         id="path26"
         style="fill:#231f20;fill-opacity:1;fill-rule:evenodd;stroke:none"
         d="m 1259.21,370.074 c 217.55,108.707 366.94,333.543 366.94,593.285 0,58.801 -7.64,115.811 -22.01,170.091 v 0 L 1259.21,370.074 v 0" /></g></g></svg>